<?xml version="1.0" standalone="no"?>
<!DOCTYPE svg PUBLIC "-//W3C//DTD SVG 20010904//EN"
 "http://www.w3.org/TR/2001/REC-SVG-20010904/DTD/svg10.dtd">
<svg version="1.0" xmlns="http://www.w3.org/2000/svg"
 width="300.000000pt" height="300.000000pt" viewBox="0 0 300.000000 300.000000"
 preserveAspectRatio="xMidYMid meet">
<metadata>
Created by potrace 1.14, written by Peter Selinger 2001-2017
</metadata>
<g transform="translate(0.000000,300.000000) scale(0.100000,-0.100000)"
fill="#000000" stroke="none">
<path d="M0 1500 l0 -1500 1500 0 1500 0 0 1500 0 1500 -1500 0 -1500 0 0
-1500z m1135 284 l293 -439 -26 -47 c-15 -27 -30 -47 -34 -45 -4 1 -111 159
-238 351 -127 192 -233 346 -236 344 -5 -6 -194 -1024 -194 -1050 0 -16 10
-18 79 -18 l80 0 10 53 c6 28 20 104 31 167 30 164 30 164 68 98 l31 -56 -30
-158 c-16 -88 -31 -169 -34 -181 -5 -23 -7 -23 -181 -23 l-176 0 5 23 c7 27
247 1412 247 1423 0 13 4 7 305 -442z m1048 344 c9 -57 66 -381 127 -721 60
-341 110 -621 110 -623 0 -3 -57 -3 -127 -2 l-127 3 -99 542 -99 543 33 65
c27 51 36 61 41 47 4 -9 51 -251 103 -537 53 -286 98 -528 101 -537 3 -11 15
-18 30 -18 23 0 25 3 20 28 -7 31 -175 945 -201 1092 -10 52 -20 101 -24 108
-4 7 -172 -270 -401 -663 l-395 -675 -62 0 -62 0 356 608 c195 334 385 660
422 724 l66 117 86 1 85 0 17 -102z m-324 -707 c12 -16 21 -36 21 -45 0 -14
-242 -435 -272 -473 -7 -9 -24 9 -59 63 -27 41 -49 80 -49 87 0 16 43 97 52
97 4 0 18 -16 31 -35 13 -19 27 -32 30 -29 4 4 52 87 109 185 56 99 106 179
110 179 3 0 16 -13 27 -29z"/>
</g>
</svg>
